<?xml version="1.0" encoding="UTF-8"?>
<svg id="Laag_2" data-name="Laag 2" xmlns="http://www.w3.org/2000/svg" viewBox="0 0 378.06 216.29">
  <defs>
    <style>
      .cls-1 {
        fill: none;
        stroke: #fff;
        stroke-dasharray: 0 5;
        stroke-linecap: round;
        stroke-miterlimit: 15;
        stroke-width: 3.06px;
      }

      .cls-2 {
        fill: #ee7672;
        stroke-width: 0px;
      }
    </style>
  </defs>
  <g id="Laag_1-2" data-name="Laag 1">
    <path class="cls-2" d="M376.53,16.45v199.84H1.53V16.47L59.91,3.41c3.23-.72,6.47-1.33,9.72-1.83,18.34-2.83,37.1-.55,54.46,6.02l15.79,5.98c32.03,12.12,59.65,8.72,97.39-.24l28.26-6.04c7.99-1.69,14.4-3.65,20.96-5.21C292.63.62,298.92-.06,305.23,0s13.94-.06,18.79,1.89l52.52,14.55Z"/>
    <path class="cls-1" d="M1.53,24.96c15.84-3.95,31.88-7.15,48.02-9.6,18.77-2.85,38-4.66,56.68-1.27,17.58,3.19,34.11,10.89,51.7,14.05,11.8,2.12,23.87,2.16,35.86,2.04,13.28-.14,26.7-.49,39.56-3.83,11.39-2.96,22.07-8.21,33.39-11.44,32.63-9.3,67.38-1.24,100.33,6.84,3.15.77,6.31,1.54,9.46,2.32"/>
    <path class="cls-1" d="M1.53,32.9c24.87-8.26,50.88-13.13,77.06-14.4,9.26-.45,18.64-.45,27.66,1.66,9.83,2.3,18.92,7.02,28.55,10.08,12.25,3.91,25.18,5.08,37.98,6.23,27.35,2.45,55.49,1.83,81.25-7.68,10.21-3.77,20.09-6.41,30.74-8.69,10.83-2.31,22.08-1.05,33.04.54,19.76,2.86,39.37,6.78,58.72,11.71"/>
  </g>
</svg>